<svg viewBox="0 0 119 119" fill="none" xmlns="http://www.w3.org/2000/svg">
<path d="M98.2085 90.7468L111.428 91.6163L115.448 87L112.872 91.8631L116 92.6843L112.782 93.2332L114.751 98L111.186 93.2527L98 92.5245L98.2085 90.7468Z" fill="#451A03"/>
<path d="M68.8234 1.01471C58.6431 -1.66549 46.8559 1.337 37.4136 5.66728C28.5442 9.73462 18.3718 15.8367 16.2355 24.5395C5.59964 48.8957 50.121 73.0897 45.8673 90.3477C41.9966 106.046 29.8026 108.274 25.3049 109.949C17.4689 112.869 0 112.533 0 112.533C0 112.533 22.7798 121.374 44.2372 118.382C54.2501 116.986 71.4296 112.735 88.083 102.365C89.5185 101.472 92.9658 99.4241 94.2985 98.0946C95.9104 96.4865 95.9104 96.4865 97.1413 94.2352C121.136 72.4396 102.555 10.5957 68.8234 1.01471Z" fill="#FF6E00"/>
<path d="M42.3041 44.0316C44.3791 46.924 47.6477 48.9616 51.3947 49.6982C55.1417 50.4349 59.0614 49.8104 62.2955 47.9612C65.5299 46.1123 67.8155 43.1898 68.6513 39.8333C69.4874 36.4771 68.8061 32.9602 66.7562 30.0533C64.7067 27.1463 61.4557 25.0861 57.7152 24.3236C53.9747 23.5611 50.0496 24.1583 46.7993 25.9849C43.5491 27.8111 41.2386 30.7177 40.3737 34.0682C39.5084 37.4187 40.1595 40.9402 42.1842 43.8613" fill="white"/>
<path d="M76.8741 24.9341C77.6609 25.9352 78.901 26.6405 80.3222 26.8956C81.7434 27.1506 83.2303 26.9342 84.4569 26.2943C85.6839 25.6544 86.5508 24.6425 86.8678 23.4808C87.1848 22.319 86.9264 21.1017 86.1491 20.0955C85.3716 19.0893 84.1384 18.3762 82.7196 18.112C81.3008 17.8481 79.8121 18.0549 78.5792 18.687C77.3462 19.3194 76.4698 20.3256 76.1417 21.4852C75.8136 22.6451 76.0604 23.864 76.8284 24.8751" fill="white"/>
<path d="M63.3971 33.3113C63.7547 33.6451 64.3185 33.8803 64.9646 33.9652C65.6103 34.0501 66.2863 33.9781 66.8439 33.7648C67.4015 33.5516 67.7957 33.2142 67.9399 32.827C68.0841 32.4398 67.9665 32.0339 67.6129 31.6985C67.2598 31.363 66.6993 31.1255 66.0544 31.0373C65.4095 30.9494 64.7327 31.0184 64.1722 31.229C63.6118 31.4399 63.2135 31.7751 63.0644 32.1617C62.9153 32.5484 63.0275 32.9545 63.3766 33.2916" fill="#8A3324"/>
<path d="M85.159 22.5408C85.3019 22.7634 85.5274 22.9202 85.7858 22.9768C86.0441 23.0334 86.3146 22.9854 86.5376 22.8432C86.7606 22.7009 86.9182 22.4761 86.9759 22.2178C87.0336 21.9598 86.9866 21.6893 86.8452 21.4656C86.7039 21.2419 86.4796 21.0835 86.2218 21.0249C85.9637 20.9663 85.693 21.012 85.469 21.1526C85.2447 21.2932 85.0856 21.5166 85.0258 21.7744C84.9661 22.0321 85.0111 22.3032 85.1506 22.5277" fill="#8A3324"/>
<path d="M64.1573 66.4302C56.2365 70.1092 54.0976 86.1245 44.7624 95.4233C49.806 93.6082 52.5041 91.6251 54.0821 89.584C53.6901 92.3624 50.6934 95.4398 43 101C54.5386 97.0345 75.2491 90.4618 76.9611 78.1719C77.6235 73.4215 69.6805 63.8645 64.1583 66.4298L64.1573 66.4302Z" fill="#8A3324"/>
<path d="M106.329 49.6101C106.329 49.6101 100.366 44.229 93.5645 48.9196C85.7388 54.3159 81.5114 62.6211 85.5653 77.3767C88.6039 88.4359 98.5453 95 98.5453 95C109.854 82.8317 108.944 61.4381 106.329 49.6088L106.329 49.6101Z" fill="#D16002"/>
<path d="M98 27L119 30.6326L99.6508 40L98 27Z" fill="#FF9913"/>
<path d="M95 27L117 30.3532L96.7295 39L95 27Z" fill="#FF9913"/>
<path d="M93.3912 96.8061L111.186 100.145L115.941 95L112.714 100.558L116 101.793L112.489 102.177L114.157 108L110.772 102.068L93 98.8989L93.3912 96.8061Z" fill="#451A03"/>
<path d="M98.2085 90.7468L111.428 91.6163L115.448 87L112.872 91.8631L116 92.6843L112.782 93.2332L114.751 98L111.186 93.2527L98 92.5245L98.2085 90.7468Z" fill="#451A03"/>
<path d="M68.8234 1.01471C58.6431 -1.66549 46.8559 1.337 37.4136 5.66728C28.5442 9.73462 18.3718 15.8367 16.2355 24.5395C5.59964 48.8957 50.121 73.0897 45.8673 90.3477C41.9966 106.046 29.8026 108.274 25.3049 109.949C17.4689 112.869 0 112.533 0 112.533C0 112.533 22.7798 121.374 44.2372 118.382C54.2501 116.986 71.4296 112.735 88.083 102.365C89.5185 101.472 92.9658 99.4241 94.2985 98.0946C95.9104 96.4865 95.9104 96.4865 97.1413 94.2352C121.136 72.4396 102.555 10.5957 68.8234 1.01471Z" fill="#FD673A"/>
<path d="M42.3041 44.0316C44.3791 46.924 47.6477 48.9616 51.3947 49.6982C55.1417 50.4349 59.0614 49.8104 62.2955 47.9612C65.5299 46.1123 67.8155 43.1898 68.6513 39.8333C69.4874 36.4771 68.8061 32.9602 66.7562 30.0533C64.7067 27.1463 61.4557 25.0861 57.7152 24.3236C53.9747 23.5611 50.0496 24.1583 46.7993 25.9849C43.5491 27.8111 41.2386 30.7177 40.3737 34.0682C39.5084 37.4187 40.1595 40.9402 42.1842 43.8613" fill="white"/>
<path d="M76.8741 24.9341C77.6609 25.9352 78.901 26.6405 80.3222 26.8956C81.7434 27.1506 83.2303 26.9342 84.4569 26.2943C85.6839 25.6544 86.5508 24.6425 86.8678 23.4808C87.1848 22.319 86.9264 21.1017 86.1491 20.0955C85.3716 19.0893 84.1384 18.3762 82.7196 18.112C81.3008 17.8481 79.8121 18.0549 78.5792 18.687C77.3462 19.3194 76.4698 20.3256 76.1417 21.4852C75.8136 22.6451 76.0604 23.864 76.8284 24.8751" fill="white"/>
<path d="M63.3971 33.3113C63.7547 33.6451 64.3185 33.8803 64.9646 33.9652C65.6103 34.0501 66.2863 33.9781 66.8439 33.7648C67.4015 33.5516 67.7957 33.2142 67.9399 32.827C68.0841 32.4398 67.9665 32.0339 67.6129 31.6985C67.2598 31.363 66.6993 31.1255 66.0544 31.0373C65.4095 30.9494 64.7327 31.0184 64.1722 31.229C63.6118 31.4399 63.2135 31.7751 63.0644 32.1617C62.9153 32.5484 63.0275 32.9545 63.3766 33.2916" fill="#451A03"/>
<path d="M85.159 22.5408C85.3019 22.7634 85.5274 22.9202 85.7858 22.9768C86.0441 23.0334 86.3146 22.9854 86.5376 22.8432C86.7606 22.7009 86.9182 22.4761 86.9759 22.2178C87.0336 21.9598 86.9866 21.6893 86.8452 21.4656C86.7039 21.2419 86.4796 21.0835 86.2218 21.0249C85.9637 20.9663 85.693 21.012 85.469 21.1526C85.2447 21.2932 85.0856 21.5166 85.0258 21.7744C84.9661 22.0321 85.0111 22.3032 85.1506 22.5277" fill="#451A03"/>
<path d="M64.1573 66.4302C56.2365 70.1092 54.0976 86.1245 44.7624 95.4233C49.806 93.6082 52.5041 91.6251 54.0821 89.584C53.6901 92.3624 50.6934 95.4398 43 101C54.5386 97.0345 75.2491 90.4618 76.9611 78.1719C77.6235 73.4215 69.6805 63.8645 64.1583 66.4298L64.1573 66.4302Z" fill="#C35214"/>
<path d="M106.329 49.6101C106.329 49.6101 100.366 44.229 93.5645 48.9196C85.7388 54.3159 81.5114 62.6211 85.5653 77.3767C88.6039 88.4359 98.5453 95 98.5453 95C109.854 82.8317 108.944 61.4381 106.329 49.6088L106.329 49.6101Z" fill="#ED9121"/>
<path d="M98 27L119 30.6326L99.6508 40L98 27Z" fill="#C35214"/>
<path d="M95 27L117 30.3532L96.7295 39L95 27Z" fill="#C35214"/>
<path d="M93.3912 96.8061L111.186 100.145L115.941 95L112.714 100.558L116 101.793L112.489 102.177L114.157 108L110.772 102.068L93 98.8989L93.3912 96.8061Z" fill="#451A03"/>
</svg>
